<svg width="474" height="352" viewBox="0 0 474 352" fill="none" xmlns="http://www.w3.org/2000/svg">
<path d="M412.646 120.87L399.531 133.38V211.464C399.531 217.625 396.62 222.953 392.391 226.771C390.5 228.432 390.458 231.38 392.313 233.083L404.901 243.323C414.651 235.693 420.583 224.578 420.583 211.234V138.672L420.318 124.042C420.281 122.229 419.224 120.677 417.521 119.958C415.823 119.245 413.969 119.583 412.646 120.87ZM431.62 55.1771C405.734 55.1771 388.156 75.5521 377.198 90.8594L377.083 91.0104C366.917 105.224 360.188 114.974 348.396 117.505L364.042 133.87C378.026 127.031 386.193 114.177 394.089 103.141L394.203 102.99C407.51 84.3594 419.073 76.0417 431.62 76.0417C443.146 76.0417 452.484 85.4167 452.484 96.9427C452.484 106.125 446.51 114.177 438.198 117.01V138.177C458.115 135.005 473.385 117.729 473.385 96.9427C473.385 73.8906 454.641 55.1771 431.62 55.1771Z" fill="#009CA3"/>
<path d="M90.6719 222.839C81.224 221.63 74.4167 215.203 73.9271 201.109C73.776 196.005 73.9635 123.932 73.9635 123.932C74.0417 121.396 72.3021 119.656 70.1094 119.51C68.8229 119.396 67.651 119.885 66.8229 120.719L53.0625 134.474V204.172C53.2135 227.073 67.8802 242.646 90.6719 244.422C156.432 249.714 178.13 229.453 233.917 221.063V244.911H277.979C286.526 244.422 295.37 239.583 302.438 230.776L318.615 244.911H327.156C350.214 244.911 368.24 226.505 368.24 203.453V165.844C368.198 164.823 367.823 163.766 367.031 162.974C365.365 161.349 362.755 161.349 361.094 162.974L347.755 176.729V203.453C347.755 214.979 338.38 224.313 326.854 224.313H307.047C310.604 218.193 312.302 211.089 312.302 203.49V165.922C312.266 164.865 311.885 163.802 311.057 163.01C309.427 161.385 306.786 161.385 305.161 163.01L291.781 176.771V203.49C291.781 213.094 285.656 223.448 276.51 223.708H275.792C275.604 223.708 275.417 223.708 275.26 223.672V223.708C268.458 223.708 261.958 223.594 255.229 223.594V197.63C194.115 198.99 152.427 228.432 90.6719 222.839Z" fill="#009CA3"/>
<path d="M73.849 189.88H52.7969V167.469H73.849V189.88ZM41.7604 55.1823C67.651 55.1823 85.2292 75.5521 96.1875 90.8594L96.3021 91.0104C108.208 107.677 115.427 118.182 131.526 118.182H273.635L287.396 131.563C288.151 132.323 288.604 133.339 288.604 134.51C288.604 136.818 286.75 138.672 284.448 138.672H131.526C102.536 138.672 90.6302 118.979 79.2917 103.141L79.1823 102.99C65.875 84.3594 54.3125 76.0417 41.7604 76.0417C30.2344 76.0417 20.8594 85.4167 20.8594 96.9427C20.8594 108.432 30.2344 118.073 41.7604 118.073V138.672C18.7448 138.672 0 119.964 0 96.9427C0 73.8906 18.7448 55.1823 41.7604 55.1823Z" fill="#009CA3"/>
<path d="M294.5 118.146C292.193 118.146 290.344 120 290.344 122.302C290.344 123.474 290.797 124.495 291.552 125.25L305.307 138.63H349.495C351.797 138.63 353.688 136.781 353.688 134.474C353.688 133.302 353.193 132.281 352.443 131.49L338.719 118.146" fill="#009CA3"/>
<path fill-rule="evenodd" clip-rule="evenodd" d="M236.672 0C259.01 0 277.078 6.01042 277.078 13.4167C277.078 19.3125 265.625 24.3021 249.677 26.0781V39.7969C316.573 40.8542 371.302 56.2396 386.458 68.0313C271.219 50.4531 202.167 50.4531 86.9271 68.0313C102.083 56.2396 156.813 40.8542 223.708 39.7969V26.0781C207.76 24.3021 196.307 19.3125 196.307 13.4167C196.307 6.01042 214.375 0 236.672 0Z" fill="#B70D0D"/>
<path d="M258.557 263.552H245.849C243.516 263.552 241.641 265.422 241.641 267.724V280.234C241.641 282.531 243.516 284.406 245.849 284.406H258.557C260.891 284.406 262.766 282.531 262.766 280.234V267.724C262.766 265.422 260.891 263.552 258.557 263.552Z" fill="#009CA3"/>
<path d="M286.953 263.552H274.214C271.911 263.552 270 265.422 270 267.724V280.234C270 282.531 271.911 284.406 274.214 284.406H286.953C289.25 284.406 291.161 282.531 291.161 280.234V267.724C291.161 265.422 289.25 263.552 286.953 263.552Z" fill="#B70D0D"/>
<path d="M114.555 323.545H115.242C116.325 323.545 116.95 323.94 117.117 324.732L117.159 325.003C117.159 326.227 115.919 327.977 113.45 330.253L112.992 330.357H112.763C111.763 330.357 111.164 329.748 110.971 328.524C111.039 328.232 111.315 327.774 111.805 327.149C108.164 327.774 105.128 328.893 102.7 330.503C101.268 331.295 99.1796 332.94 96.4296 335.44C94.1796 337.899 93.0546 340.071 93.0546 341.961C93.0546 343.513 94.1692 344.992 96.388 346.399C98.3567 347.425 100.581 347.94 103.055 347.94H104.117C107.518 347.94 111.419 347.258 115.825 345.899C117.81 345.159 119.518 344.336 120.95 343.42C123.45 341.711 124.7 340.534 124.7 339.899C124.7 339.482 123.575 338.711 121.325 337.586C120.617 337.117 120.263 336.581 120.263 335.982V335.92C120.263 334.852 120.872 334.263 122.096 334.149H122.18L124.888 334.503L125.617 334.565L128.721 334.503H128.888L129.638 334.461C130.44 334.461 130.997 334.972 131.305 335.982V336.295C131.305 337.268 130.706 337.847 129.513 338.024H128.825L127.68 338.086C128.065 338.795 128.263 339.43 128.263 340.003C128.263 341.42 126.753 343.076 123.742 344.982C121.81 346.399 119.253 347.68 116.075 348.836C111.628 350.295 107.2 351.024 102.784 351.024C95.9505 351.024 91.763 348.841 90.2213 344.482C90.013 343.716 89.9088 342.992 89.9088 342.315V341.836C89.9088 339.071 92.1067 335.722 96.4921 331.774C99.6692 329.222 102.352 327.524 104.534 326.69C108.992 324.597 112.331 323.545 114.555 323.545Z" fill="#009CA3"/>
<path d="M136.582 331.44C136.441 331.873 136.384 332.461 136.415 333.211C136.457 333.951 136.983 334.388 137.999 334.524C138.926 334.44 139.519 334.977 139.769 336.128V336.524C139.53 337.607 138.92 338.149 137.936 338.149C135.488 338.159 134.144 337.263 133.894 335.44C133.254 336.456 132.587 337.164 131.894 337.565C131.196 337.956 130.337 338.17 129.311 338.211C128.009 338.003 127.394 337.357 127.478 336.274C127.561 335.18 128.155 334.539 129.249 334.357C130.999 334.357 132.332 332.992 133.249 330.253C134.165 327.503 134.879 325.857 135.394 325.315C135.92 324.763 136.504 324.581 137.144 324.774C138.363 325.399 138.54 326.597 137.665 328.357C137.082 329.972 136.717 330.998 136.582 331.44ZM143.978 317.107C144.353 317.107 144.629 317.31 144.811 317.711L144.394 319.232C144.311 319.748 141.728 320.164 136.644 320.482H136.519C135.478 320.482 134.957 320.102 134.957 319.336C134.957 318.378 135.54 317.727 136.707 317.378L143.978 317.107Z" fill="#009CA3"/>
<path d="M147.901 325.607H148.005C148.948 325.607 149.734 326.076 150.359 327.003C150.995 327.92 151.286 329.263 151.234 331.024C151.177 332.789 150.682 334.42 149.755 335.92C148.823 337.409 147.328 338.17 145.276 338.211C143.443 338.076 142.177 337.326 141.484 335.961C140.12 337.586 138.87 338.305 137.734 338.128C136.807 337.878 136.328 337.352 136.297 336.545C136.255 335.742 136.474 335.185 136.943 334.878C137.417 334.576 137.932 334.393 138.484 334.336C139.036 334.268 139.641 333.826 140.297 333.003C140.963 332.17 141.995 330.732 143.401 328.69C144.802 326.638 146.302 325.607 147.901 325.607ZM145.068 334.899C145.911 335.123 146.734 334.852 147.526 334.086C148.328 333.326 148.703 332.461 148.651 331.503C148.609 330.534 148.276 329.914 147.651 329.649C147.036 329.388 146.234 329.92 145.234 331.253C144.245 332.576 143.682 333.435 143.547 333.836C143.713 334.326 144.219 334.68 145.068 334.899Z" fill="#009CA3"/>
<path d="M170.874 334.378C172.15 334.685 172.708 335.456 172.541 336.69C172.385 337.93 171.833 338.43 170.874 338.211C168.749 337.893 167.301 336.805 166.541 334.94C165.458 336.815 164.291 338.508 163.041 340.024C161.301 342.076 159.572 343.107 157.854 343.107H157.458C156.458 343.107 155.604 342.753 154.895 342.045C153.963 343.612 153.145 344.774 152.437 345.524C151.729 346.274 151.083 346.649 150.499 346.649C149.624 346.649 149.031 346.17 148.708 345.211L148.666 344.857V344.67C148.666 344.086 149.036 343.529 149.77 343.003C151.161 341.638 152.057 340.612 152.458 339.92C154.416 337.534 155.739 334.831 156.437 331.815C157.197 328.524 157.697 325.94 157.937 324.065C158.338 322.998 158.958 322.461 159.791 322.461C160.749 322.461 161.364 322.94 161.645 323.899L161.687 324.295C161.255 327.701 160.551 331.06 159.583 334.378L157.666 339.336V339.461L158.187 339.524C159.906 339.524 161.781 337.399 163.812 333.149C165.02 330.289 165.734 327.826 165.958 325.753C166.192 323.67 166.338 321.701 166.395 319.836C166.447 317.977 167.062 317.045 168.229 317.045H168.583C169.291 317.045 169.864 317.477 170.312 318.336C170.421 318.576 170.479 318.815 170.479 319.065V319.42C170.479 320.784 169.989 324.393 169.02 330.253L168.979 330.836C169.13 332.659 169.76 333.836 170.874 334.378Z" fill="#009CA3"/>
<path d="M181.489 334.295C185.599 333.503 188.969 332.034 191.594 329.878C194.219 327.711 195.781 327.763 196.281 330.024V330.086C196.349 331.06 195.078 332.347 192.469 333.94C189.87 335.539 186.432 336.748 182.156 337.565C177.891 338.367 174.682 338.67 172.531 338.461C170.38 338.253 169.302 337.909 169.302 337.42C168.958 337.117 168.781 336.727 168.781 336.253C168.989 335.128 169.562 334.565 170.489 334.565C173.708 335.164 177.375 335.076 181.489 334.295Z" fill="#009CA3"/>
<path d="M244.973 318.045C246.191 318.227 246.806 318.826 246.806 319.836C246.806 325.17 245.556 328.998 243.056 331.315C240.624 333.623 237.832 335.352 234.681 336.503C231.181 337.742 227.525 338.357 223.723 338.357C216.316 338.357 211.785 336.805 210.119 333.69C209.785 332.815 209.619 332.097 209.619 331.524C209.619 328.831 211.598 326.253 215.556 323.795C217.223 322.951 218.952 322.284 220.744 321.795C223.577 321.128 225.983 320.795 227.973 320.795C228.723 320.795 229.27 321.295 229.619 322.295V322.92C229.619 323.784 229.046 324.336 227.91 324.586H226.723C222.139 324.586 218.285 325.878 215.16 328.461C213.785 329.81 213.098 330.909 213.098 331.753C213.098 333.727 215.796 334.92 221.202 335.336L223.931 335.378H223.994C230.936 335.378 236.639 333.076 241.098 328.461C242.358 326.951 242.994 324.185 242.994 320.17C242.994 319.211 243.389 318.56 244.181 318.211C244.431 318.102 244.691 318.045 244.973 318.045ZM224.91 347.586C225.994 347.586 226.91 348.295 227.66 349.711V350.149C227.66 350.867 227.004 351.367 225.702 351.649H225.264C224.139 351.649 223.457 350.795 223.223 349.086C223.223 348.211 223.785 347.711 224.91 347.586Z" fill="#009CA3"/>
<path d="M251.477 336.107C252.128 334.805 253.519 334.274 255.644 334.524C256.363 334.597 256.863 334.893 257.144 335.42C257.42 335.935 257.482 336.44 257.331 336.94C257.175 337.43 256.857 337.774 256.373 337.982C255.883 338.19 254.779 338.253 253.061 338.17C251.352 338.102 250.821 337.414 251.477 336.107ZM253.748 325.19C255.04 325.315 255.878 326.18 256.269 327.774C256.337 328.331 256.342 328.836 256.29 329.295C256.024 332.352 254.352 336.107 251.269 340.565C250.279 341.982 248.508 343.857 245.956 346.19C243.347 348.565 241.675 349.857 240.936 350.065L240.602 350.045C240.061 349.987 239.623 349.597 239.29 348.878C239.196 348.696 239.16 348.451 239.186 348.149L239.206 348.065C239.279 347.216 239.842 346.482 240.894 345.857C242.019 344.899 243.238 343.784 244.54 342.524C246.399 340.758 247.779 339.149 248.686 337.69C246.769 336.888 245.915 335.607 246.123 333.857C246.107 331.972 247.462 329.56 250.186 326.628C251.446 325.576 252.633 325.097 253.748 325.19ZM250.019 332.836C249.67 333.727 249.852 334.232 250.561 334.357C250.946 334.097 251.477 333.076 252.144 331.295L252.561 329.524C251.212 330.831 250.363 331.935 250.019 332.836Z" fill="#009CA3"/>
<path d="M264.118 322.065H264.181C265.483 322.065 266.983 323.232 268.681 325.565C269.774 326.972 270.441 327.789 270.681 328.024C271.957 327.149 272.858 326.711 273.389 326.711H273.785C274.368 326.711 274.853 327.102 275.243 327.878C275.327 328.076 275.368 328.289 275.368 328.524C275.368 329.414 274.827 330.378 273.743 331.42C273.019 331.977 272.316 332.253 271.639 332.253L270.827 332.065C268.202 333.638 265.962 334.852 264.118 335.711C260.379 337.268 258.181 338.045 257.514 338.045C257.149 338.117 256.67 338.149 256.077 338.149H255.91C255.16 338.149 254.629 337.774 254.306 337.024L254.202 336.524V336.295C254.202 335.56 254.655 335.034 255.556 334.711C256.899 334.711 258.373 334.347 259.972 333.607C262.873 332.498 265.608 331.149 268.181 329.565C266.457 326.972 265.082 325.67 264.056 325.67C263.373 325.685 262.061 327.086 260.118 329.878C259.618 330.503 259.212 330.815 258.91 330.815C258.535 330.815 258.118 330.409 257.66 329.586L257.577 329.024C257.577 327.899 258.452 326.482 260.202 324.774C261.868 322.972 263.17 322.065 264.118 322.065ZM263.702 311.086C264.785 311.086 265.702 311.795 266.452 313.211V313.649C266.452 314.373 265.806 314.873 264.514 315.149H264.056C262.941 315.149 262.269 314.295 262.035 312.586C262.035 311.727 262.587 311.227 263.702 311.086Z" fill="#009CA3"/>
<path d="M316.44 313.565C317.924 313.774 318.669 314.456 318.669 315.607V315.878C318.669 316.727 318.169 317.513 317.169 318.232L316.44 318.399C315.758 318.399 315.242 318.086 314.898 317.461C311.95 317.727 309.252 318.17 306.794 318.795C304.263 319.518 302.195 320.315 300.586 321.19C299.179 321.956 297.815 322.998 296.482 324.315C293.815 327.107 292.482 330.018 292.482 333.045V333.149C292.482 336.638 293.784 339.649 296.398 342.19C300.357 345.399 305.32 347.003 311.294 347.003C318.054 347.003 324.403 344.946 330.336 340.836C332.346 339.362 333.648 337.545 334.232 335.378L334.398 334.607C334.034 333.914 333.846 333.055 333.836 332.024V331.565C333.836 330.399 334.169 329.659 334.836 329.336C335.263 329.159 335.586 329.065 335.794 329.065C337.252 329.065 337.987 330.456 338.002 333.232C338.528 334.149 340.065 334.597 342.607 334.565C345.148 334.524 350.148 334.492 357.607 334.461C359.008 334.503 359.711 335.055 359.711 336.107C359.711 337.373 359.023 338.055 357.648 338.149C345.023 338.951 338.107 338.758 336.898 337.565C334.607 342.274 330.07 345.992 323.294 348.732C319.903 349.883 316.653 350.461 313.544 350.461H312.023C306.159 350.461 300.638 348.659 295.461 345.065C293.778 343.742 292.44 342.383 291.44 340.982C289.617 338.357 288.711 335.748 288.711 333.149C288.711 329.456 290.096 325.935 292.877 322.586C294.653 320.711 295.903 319.602 296.627 319.253C298.737 317.742 301.362 316.492 304.502 315.503C306.627 314.867 309.211 314.326 312.252 313.878C314.419 313.67 315.815 313.565 316.44 313.565Z" fill="#009CA3"/>
<path d="M365.846 322.065H365.909C367.211 322.065 368.711 323.232 370.409 325.565C371.502 326.972 372.169 327.789 372.409 328.024C373.685 327.149 374.586 326.711 375.117 326.711H375.513C376.096 326.711 376.58 327.102 376.971 327.878C377.054 328.076 377.096 328.289 377.096 328.524C377.096 329.414 376.554 330.378 375.471 331.42C374.747 331.977 374.044 332.253 373.367 332.253L372.554 332.065C369.929 333.638 367.69 334.852 365.846 335.711C362.107 337.268 359.909 338.045 359.242 338.045C358.877 338.117 358.398 338.149 357.804 338.149H357.638C356.888 338.149 356.357 337.774 356.034 337.024L355.929 336.524V336.295C355.929 335.56 356.383 335.034 357.284 334.711C358.627 334.711 360.101 334.347 361.7 333.607C364.601 332.498 367.336 331.149 369.909 329.565C368.185 326.972 366.81 325.67 365.784 325.67C365.101 325.685 363.789 327.086 361.846 329.878C361.346 330.503 360.94 330.815 360.638 330.815C360.263 330.815 359.846 330.409 359.388 329.586L359.304 329.024C359.304 327.899 360.179 326.482 361.929 324.774C363.596 322.972 364.898 322.065 365.846 322.065Z" fill="#009CA3"/>
</svg>
